# xmcd
#
# Track frame offsets:
#	150
#	2894
#	21783
#	41127
#	59157
#	74533
#	96496
#	112424
#	136414
#	158071
#	169613
#
# Disc length: 2500 seconds
#
# Revision: 1
# Processed by: cddbd v1.5.2PL0 Copyright (c) Steve Scherf et al.
# Submitted via: audiograbber 1.83.01
#
DISCID=a309c20b
DTITLE=Garth Brooks - Live South Padre, Tx
DYEAR=1900
DGENRE=Country
TTITLE0=Intro
TTITLE1=Tear It Up (And Burn It Down)
TTITLE2=Rodeo
TTITLE3=Much Too Young (To Feel This Damn Old)
TTITLE4=The River
TTITLE5=Two Pina Coladas
TTITLE6=Long Neck Bottle
TTITLE7=Mr. Bo Jangles (Feat. Jerry Jeff Walker)
TTITLE8=Standing In The Texas Sun (Feat. Jerry Jeff Walker)
TTITLE9=When You Come Back To Me
TTITLE10=The Dance
EXTD=
EXTT0=
EXTT1=
EXTT2=
EXTT3=
EXTT4=
EXTT5=
EXTT6=
EXTT7=
EXTT8=
EXTT9=
EXTT10=
PLAYORDER=
